<?xml version="1.0" standalone="no"?>
<!DOCTYPE svg PUBLIC "-//W3C//DTD SVG 20010904//EN"
 "http://www.w3.org/TR/2001/REC-SVG-20010904/DTD/svg10.dtd">
<svg version="1.0" xmlns="http://www.w3.org/2000/svg"
 width="416.000000pt" height="416.000000pt" viewBox="0 0 416.000000 416.000000"
 preserveAspectRatio="xMidYMid meet">
<metadata>
Created by potrace 1.11, written by Peter Selinger 2001-2013
</metadata>
<g transform="translate(0.000000,416.000000) scale(0.100000,-0.100000)"
fill="#000000" stroke="none">
<path d="M1270 2969 c0 -6 -4 -8 -9 -5 -5 3 -17 -2 -28 -12 -10 -9 -14 -14 -8
-10 7 4 15 5 18 1 4 -3 7 -2 7 4 0 16 53 10 67 -7 7 -8 13 -10 13 -4 0 14 -27
37 -46 40 -8 1 -14 -2 -14 -7z"/>
<path d="M1344 2934 c3 -17 26 -35 37 -28 4 2 10 -5 14 -16 7 -22 43 -46 53
-35 12 12 -68 74 -86 68 -9 -4 -13 -2 -8 5 3 6 2 13 -3 16 -5 4 -8 -1 -7 -10z
m81 -54 c16 -17 16 -20 3 -15 -9 4 -19 13 -22 21 -7 19 -2 18 19 -6z"/>
<path d="M1456 2844 c-3 -8 -2 -13 3 -9 5 3 11 0 13 -6 2 -5 11 -7 21 -3 17 6
17 7 0 20 -23 17 -30 17 -37 -2z"/>
<path d="M1468 2801 c-11 -8 -32 -14 -47 -15 -14 -1 -32 -5 -38 -9 -7 -5 -13
-4 -13 2 0 5 -8 8 -17 7 -20 -3 -52 -46 -34 -46 6 0 11 8 11 17 0 26 14 5 16
-23 0 -14 -5 -28 -12 -31 -19 -7 -18 -20 1 -20 8 0 15 6 15 14 0 7 5 13 11 13
5 0 7 -6 3 -12 -5 -10 -4 -10 6 -1 9 9 19 9 32 2 26 -14 36 -3 15 18 -13 13
-19 14 -31 3 -13 -10 -16 -10 -16 4 0 9 -6 16 -12 16 -22 0 36 35 62 37 57 5
79 11 94 26 15 14 14 16 -5 14 -11 -1 -30 -8 -41 -16z m27 -1 c-3 -5 -12 -10
-18 -10 -7 0 -6 4 3 10 19 12 23 12 15 0z m-130 -38 c-3 -3 -11 0 -18 7 -9 10
-8 11 6 5 10 -3 15 -9 12 -12z m50 -52 c3 -6 -1 -7 -9 -4 -18 7 -21 14 -7 14
6 0 13 -4 16 -10z"/>
<path d="M1163 2773 c15 -2 27 -9 27 -14 0 -6 -4 -8 -8 -5 -5 3 -28 -8 -50
-25 -38 -27 -41 -33 -30 -52 6 -12 11 -23 10 -24 -6 -9 0 -23 9 -23 6 0 7 5 2
13 -12 19 -13 41 -1 48 12 8 48 0 48 -11 0 -13 56 -5 75 10 10 8 30 21 44 27
l26 12 -25 -2 c-14 -1 -28 -6 -32 -12 -5 -6 -8 -3 -8 6 0 9 -7 22 -15 29 -8 7
-13 15 -11 19 2 3 -17 6 -42 7 -26 1 -35 -1 -19 -3z m71 -54 c-3 -5 0 -9 7 -9
10 0 10 -3 1 -12 -17 -17 -42 -19 -66 -5 -27 15 -37 15 -61 4 -23 -11 -14 -1
29 31 15 12 32 19 37 16 5 -3 12 2 16 12 6 15 8 15 25 -6 10 -12 15 -26 12
-31z"/>
<path d="M1195 2740 c-3 -6 -12 -7 -18 -3 -7 4 -6 0 2 -10 15 -19 2 -24 -16
-6 -8 8 -13 8 -18 0 -3 -6 -3 -10 2 -9 4 1 19 -4 31 -11 13 -7 25 -11 26 -9 1
2 7 10 14 19 10 13 9 19 -2 28 -10 8 -16 9 -21 1z m19 -9 c3 -5 -1 -14 -8 -20
-12 -10 -14 -9 -11 6 2 10 4 19 4 21 2 5 10 2 15 -7z"/>
<path d="M1038 2693 c7 -3 16 -2 19 1 4 3 -2 6 -13 5 -11 0 -14 -3 -6 -6z"/>
<path d="M1105 2547 c2 -45 -60 -96 -100 -81 -8 4 -15 1 -15 -4 0 -6 13 -9 28
-7 37 5 61 -10 45 -26 -6 -6 -9 -18 -6 -27 5 -11 3 -13 -7 -7 -9 6 -11 4 -5
-5 4 -7 2 -16 -6 -21 -7 -4 -10 -11 -7 -15 10 -9 48 57 41 69 -4 7 1 8 12 3
18 -7 18 -6 0 14 -19 21 -8 28 14 8 7 -7 12 -8 11 -3 -2 6 -1 12 0 15 6 13 6
111 0 115 -3 2 -6 -10 -5 -28z m1 -64 c-2 -9 -13 -17 -25 -18 l-23 -2 23 18
c29 23 28 23 25 2z"/>
<path d="M855 2506 c11 -8 26 -11 34 -8 9 3 12 1 7 -6 -7 -11 11 -28 21 -18
10 9 -19 37 -33 32 -7 -3 -16 -1 -19 4 -4 6 -11 10 -18 10 -6 0 -2 -6 8 -14z"/>
<path d="M1196 2477 c21 -27 30 -32 40 -23 13 12 -3 29 -18 20 -4 -3 -8 -1 -8
3 0 5 -9 14 -21 21 -17 11 -16 7 7 -21z"/>
<path d="M933 2477 c0 -7 11 -13 24 -13 13 -1 23 3 23 9 0 6 -3 7 -6 4 -4 -3
-14 -2 -24 3 -11 6 -17 5 -17 -3z"/>
<path d="M1225 2420 c-3 -5 -1 -10 4 -10 6 0 11 5 11 10 0 6 -2 10 -4 10 -3 0
-8 -4 -11 -10z"/>
<path d="M1232 2394 c2 -7 -6 -20 -18 -30 -11 -11 -33 -36 -48 -56 -25 -34
-26 -43 -4 -39 8 1 4 -47 -5 -56 -4 -3 -8 -1 -8 5 -3 26 -4 31 -11 38 -8 7
-11 -6 -11 -51 -1 -11 4 -19 10 -18 6 1 10 -8 9 -21 0 -13 -4 -22 -8 -20 -4 2
-9 0 -13 -6 -4 -6 -12 -7 -18 -4 -7 4 -9 4 -5 -1 4 -4 3 -14 -3 -22 -6 -7 -8
-13 -4 -13 4 0 14 8 21 18 8 10 13 12 14 5 0 -7 4 -13 10 -13 5 0 9 3 9 8 -1
4 -1 9 1 12 1 3 3 16 6 29 2 14 9 30 15 38 6 7 8 13 3 13 -5 0 -2 5 6 10 10 6
11 10 3 10 -7 0 -13 5 -13 10 0 6 3 9 8 8 4 -2 8 1 9 6 0 5 8 13 17 18 9 5 14
14 10 19 -3 5 0 16 6 24 10 12 9 15 -5 15 -18 0 -13 14 6 16 5 1 13 2 19 3 11
1 8 36 -4 48 -4 5 -6 3 -4 -3z m-39 -91 c-10 -8 -13 -12 -6 -9 6 4 15 1 19 -5
4 -8 3 -9 -4 -5 -7 4 -12 3 -12 -3 0 -5 -9 -9 -19 -8 -19 1 -19 2 1 29 11 16
24 26 29 22 6 -3 2 -12 -8 -21z m-30 -97 c7 4 8 3 4 -1 -15 -17 -33 -12 -34 9
-2 19 -1 19 8 3 6 -9 16 -14 22 -11z"/>
<path d="M1384 2347 c1 -14 9 -34 17 -43 8 -9 14 -20 13 -23 0 -3 4 -10 8 -16
5 -5 15 -19 23 -30 l15 -20 -7 20 c-6 18 -5 19 11 6 12 -10 14 -17 6 -25 -12
-12 -14 -39 -1 -32 5 3 8 -19 6 -49 -1 -45 1 -53 12 -43 11 8 12 7 7 -6 -3 -9
-11 -16 -16 -16 -6 0 -8 -6 -5 -14 3 -8 3 -17 -1 -21 -4 -4 -7 -16 -7 -28 -1
-12 -4 -27 -8 -34 -4 -6 -3 -14 3 -18 6 -4 7 -11 4 -17 -4 -6 -10 -5 -16 3 -8
11 -9 10 -5 -3 3 -9 -1 -22 -9 -29 -8 -6 -12 -14 -9 -17 3 -3 0 -11 -6 -19 -9
-10 -8 -17 2 -29 11 -13 10 -15 -5 -12 -12 2 -20 -4 -22 -15 -1 -10 -10 -24
-19 -31 -15 -10 -14 -12 5 -13 11 -1 18 2 16 6 -3 4 1 17 9 27 15 19 15 18 9
-1 -4 -15 -1 -13 10 5 9 15 11 29 5 34 -16 17 -10 29 9 15 16 -13 16 -13 2 5
-14 18 -13 19 2 13 10 -3 17 -3 16 1 -1 4 3 17 10 30 7 12 10 22 6 22 -3 0 -1
6 5 13 6 8 8 17 4 20 -3 4 -1 7 5 7 7 0 10 10 8 23 -2 12 1 28 6 35 7 8 6 17
-2 27 -7 8 -8 15 -3 15 5 0 9 9 10 20 1 11 -3 20 -8 20 -6 0 -7 5 -4 10 5 8
11 7 21 -1 10 -8 14 -8 14 0 0 6 -6 11 -12 11 -9 0 -8 4 2 10 8 5 10 10 4 10
-6 0 -11 6 -12 13 -2 31 -10 46 -36 78 -16 19 -33 33 -37 32 -4 -1 -10 4 -13
12 -3 9 0 12 10 8 7 -3 14 0 14 7 0 6 -4 9 -9 5 -6 -3 -21 11 -35 31 -23 35
-25 35 -22 11z m27 -34 c13 -16 12 -17 -3 -4 -10 7 -18 15 -18 17 0 8 8 3 21
-13z m85 -116 c2 -7 5 -22 8 -34 2 -12 -1 -27 -9 -33 -10 -9 -12 -4 -9 24 1
20 -1 38 -7 41 -5 4 -7 11 -3 16 7 12 17 5 20 -14z m0 -166 c-4 -6 -13 -11
-19 -11 -8 0 -7 3 2 9 8 5 10 14 6 22 -6 11 -5 11 5 2 7 -6 9 -16 6 -22z m-11
-38 c-2 -10 -4 -20 -5 -23 -1 -3 -2 -9 -1 -13 1 -5 -4 -5 -10 -2 -7 5 -7 11
-1 17 6 6 8 17 5 24 -3 8 -1 14 5 14 6 0 9 -8 7 -17z m-27 -83 c-7 -11 -17
-20 -22 -20 -5 0 -1 9 9 20 10 11 20 20 22 20 2 0 -2 -9 -9 -20z"/>
<path d="M1110 2166 c0 -9 5 -16 10 -16 6 0 10 4 10 9 0 6 -4 13 -10 16 -5 3
-10 -1 -10 -9z"/>
<path d="M1131 2084 c0 -11 3 -14 6 -6 3 7 2 16 -1 19 -3 4 -6 -2 -5 -13z"/>
<path d="M1077 2070 c-3 -11 -3 -20 -1 -20 2 0 8 9 14 20 6 11 7 20 2 20 -6 0
-12 -9 -15 -20z"/>
<path d="M1124 2029 c-2 -33 4 -33 11 -1 2 12 1 24 -3 26 -4 2 -8 -9 -8 -25z"/>
<path d="M553 2020 c1 -11 6 -20 12 -20 5 0 3 -4 -5 -10 -8 -5 -11 -12 -7 -16
4 -4 3 -12 -3 -18 -6 -8 -3 -12 11 -13 15 -1 18 3 15 23 -3 13 0 24 5 24 5 0
9 -4 9 -10 0 -5 3 -9 8 -8 4 2 16 -5 27 -15 11 -9 25 -18 30 -18 6 -1 19 -6
30 -12 20 -11 34 -15 70 -21 11 -2 20 -4 20 -6 0 -6 56 -6 61 1 2 5 11 6 19 2
8 -3 15 -1 15 4 0 5 -21 8 -47 8 -27 -1 -54 3 -60 8 -9 6 -13 5 -13 -4 0 -11
-2 -11 -10 1 -5 8 -10 11 -10 6 0 -5 -7 -3 -15 4 -8 7 -15 9 -15 4 0 -4 -7 1
-15 12 -8 10 -15 15 -15 10 0 -6 -16 6 -37 25 -20 18 -33 28 -29 22 10 -18
-10 -16 -28 3 -20 20 -21 30 -1 14 9 -7 15 -8 15 -2 0 8 -22 22 -35 22 -2 0
-3 -9 -2 -20z m87 -55 c13 -14 21 -25 18 -25 -2 0 -15 11 -28 25 -13 14 -21
25 -18 25 2 0 15 -11 28 -25z"/>
<path d="M1116 1973 c-6 -14 -5 -15 5 -6 7 7 10 15 7 18 -3 3 -9 -2 -12 -12z"/>
<path d="M910 1930 c-9 -6 -10 -10 -3 -10 6 0 15 5 18 10 8 12 4 12 -15 0z"/>
<path d="M556 1901 c1 -14 3 -26 4 -26 1 0 3 -11 4 -25 2 -14 8 -35 14 -45 10
-19 11 -19 9 3 -1 12 -5 22 -10 22 -5 0 -4 6 2 14 7 9 8 17 2 20 -10 7 -9 25
2 44 5 6 7 12 5 13 -31 7 -35 5 -32 -20z"/>
<path d="M1106 1913 c-6 -14 -5 -15 5 -6 7 7 10 15 7 18 -3 3 -9 -2 -12 -12z"/>
<path d="M1085 1849 c-4 -6 -5 -12 -2 -15 2 -3 7 2 10 11 7 17 1 20 -8 4z"/>
<path d="M2201 1822 c-13 -25 4 -42 40 -42 40 0 59 10 59 30 0 34 -82 43 -99
12z"/>
<path d="M3485 1830 c-3 -6 -3 -19 0 -30 5 -15 15 -20 44 -20 46 0 70 22 51
45 -14 17 -85 21 -95 5z"/>
<path d="M1021 1685 c-45 -75 -81 -141 -81 -146 0 -14 16 -11 30 6 15 18 140
22 140 4 0 -7 29 -9 85 -7 54 2 84 -1 81 -7 -1 -5 -11 -9 -21 -7 -13 3 -16 -1
-12 -12 4 -10 1 -16 -7 -16 -8 0 -16 -7 -20 -15 -10 -26 7 -16 50 29 29 32 45
41 55 35 8 -5 34 -9 58 -9 36 0 49 6 77 34 45 45 48 101 7 146 -71 78 -182 45
-201 -61 -7 -36 -5 -47 10 -63 23 -25 23 -45 1 -42 -11 2 -44 50 -88 129 -39
69 -74 129 -77 132 -3 4 -43 -55 -87 -130z m434 14 c19 -36 19 -79 0 -106 -18
-26 -72 -47 -78 -30 -7 19 -9 166 -2 176 10 17 65 -10 80 -40z m-407 -117
c-28 -2 -52 -1 -55 2 -3 2 7 25 22 51 l28 46 27 -48 28 -48 -50 -3z"/>
<path d="M1393 1638 c-9 -16 -16 -54 -7 -46 3 3 6 12 8 20 1 7 5 19 9 26 5 6
6 12 3 12 -3 0 -8 -6 -13 -12z"/>
<path d="M1610 1675 l0 -135 91 0 c109 0 140 14 170 78 29 58 19 104 -31 154
l-38 38 -96 0 -96 0 0 -135z m208 89 c13 -9 30 -32 39 -51 12 -31 13 -41 1
-71 -14 -39 -48 -68 -90 -78 l-28 -6 0 117 0 117 28 -7 c15 -3 38 -13 50 -21z"/>
<path d="M2443 1678 l2 -133 63 -3 64 -3 -2 78 c-1 43 -2 84 -1 91 1 8 19 12
55 12 30 0 58 5 61 10 4 6 -17 10 -54 10 -58 0 -61 1 -61 25 0 24 3 25 55 25
30 0 55 5 55 10 0 6 -47 10 -120 10 l-120 0 3 -132z"/>
<path d="M3180 1675 l0 -135 50 0 50 0 0 85 c0 74 2 86 20 95 11 6 25 8 30 5
6 -3 10 -46 10 -96 l0 -89 50 0 50 0 0 93 c0 78 -3 97 -18 110 -23 21 -74 22
-112 2 l-30 -16 0 41 0 40 -50 0 -50 0 0 -135z"/>
<path d="M591 1764 c0 -11 3 -14 6 -6 3 7 2 16 -1 19 -3 4 -6 -2 -5 -13z"/>
<path d="M1945 1747 c-31 -23 -10 -32 30 -13 46 22 75 13 75 -23 0 -28 -1 -28
-49 -23 -43 4 -53 1 -75 -21 -33 -33 -33 -71 -1 -102 26 -27 72 -33 106 -15
13 7 19 7 19 0 0 -6 25 -10 61 -10 33 0 58 4 55 8 -3 5 -6 45 -7 90 -2 106
-12 116 -118 120 -56 3 -81 0 -96 -11z m89 -93 c29 -11 15 -84 -16 -84 -4 0
-8 20 -8 45 0 48 0 48 24 39z"/>
<path d="M2193 1650 l1 -110 53 0 53 0 0 110 0 110 -53 0 -54 0 0 -110z"/>
<path d="M2738 1749 c-10 -6 -18 -14 -18 -19 0 -13 27 -13 32 0 2 6 21 11 43
13 40 2 40 2 43 -38 3 -32 1 -38 -9 -27 -7 6 -30 12 -51 12 -76 0 -114 -75
-63 -125 28 -28 70 -32 102 -10 19 13 22 13 27 0 4 -11 20 -15 55 -15 l49 0 1
84 c1 117 -10 130 -116 133 -43 1 -86 -3 -95 -8z m100 -125 c3 -32 -19 -61
-38 -49 -11 7 -14 68 -3 79 16 16 38 -1 41 -30z"/>
<path d="M3006 1748 c-47 -27 -40 -73 24 -140 22 -24 40 -46 40 -50 0 -14 -35
-9 -58 8 -28 20 -45 8 -18 -12 30 -22 112 -18 136 6 32 32 25 65 -25 119 -25
26 -45 53 -45 60 0 16 22 14 48 -5 29 -20 45 -8 17 12 -21 16 -93 16 -119 2z"/>
<path d="M3480 1651 l0 -111 54 0 54 0 -2 108 -1 107 -52 3 -53 3 0 -110z"/>
<path d="M3669 1745 c-71 -39 -71 -153 1 -190 51 -26 97 -20 137 20 33 33 35
39 30 82 -9 86 -93 129 -168 88z m123 -22 c24 -21 39 -79 29 -106 -12 -30 -43
-56 -71 -59 -24 -3 -24 -2 -25 95 l-1 98 26 -6 c14 -4 33 -14 42 -22z"/>
<path d="M3870 1650 l0 -110 50 0 50 0 0 85 c0 74 2 86 20 95 11 6 25 8 30 5
6 -3 10 -46 10 -96 l0 -89 50 0 50 0 0 93 c0 78 -3 97 -18 110 -21 20 -83 22
-115 6 -16 -9 -22 -9 -25 0 -2 6 -25 11 -53 11 l-49 0 0 -110z"/>
<path d="M1330 1500 c-7 -16 -10 -31 -9 -32 2 -2 -6 -14 -18 -27 -12 -13 -19
-30 -16 -39 5 -11 3 -13 -8 -7 -11 7 -11 5 1 -10 14 -17 13 -18 -2 -12 -13 4
-15 2 -11 -10 4 -11 2 -14 -5 -9 -11 6 -38 -31 -34 -46 1 -5 -3 -8 -8 -8 -5 0
-10 -8 -10 -17 0 -14 6 -11 24 12 13 16 21 36 18 44 -3 8 -1 12 5 8 6 -4 17 1
26 11 15 17 17 21 17 43 0 5 6 7 13 3 6 -4 9 -3 4 1 -4 5 0 17 10 27 9 10 13
18 9 18 -3 0 2 12 11 27 12 18 13 24 4 19 -9 -6 -12 -5 -9 5 3 8 11 13 17 12
6 -2 11 2 11 7 0 22 -28 8 -40 -20z m1 -33 c-10 -9 -11 -8 -5 6 3 10 9 15 12
12 3 -3 0 -11 -7 -18z m-1 -20 c0 -2 -10 -12 -22 -23 l-23 -19 19 23 c18 21
26 27 26 19z"/>
<path d="M1179 1433 l-24 -28 28 24 c25 23 32 31 24 31 -2 0 -14 -12 -28 -27z"/>
<path d="M769 1368 c17 -15 28 -28 25 -28 -4 0 1 -9 11 -20 10 -11 15 -20 10
-20 -4 0 -2 -6 4 -13 6 -8 9 -16 6 -19 -2 -2 9 -20 26 -39 17 -19 27 -28 23
-20 -4 9 -2 12 7 9 8 -3 13 -10 12 -15 -1 -5 5 -10 14 -10 12 0 9 6 -10 22
-25 23 -59 77 -63 105 -2 8 -8 16 -14 18 -5 2 -8 7 -5 12 2 4 -5 16 -17 26
-12 11 -18 13 -13 5 5 -9 3 -12 -6 -9 -8 3 -13 10 -12 15 1 5 -5 10 -14 10
-11 0 -6 -9 16 -29z m52 -45 c13 -16 12 -17 -3 -4 -10 7 -18 15 -18 17 0 8 8
3 21 -13z m37 -78 c6 -14 10 -25 8 -25 -2 0 -11 11 -20 25 -9 14 -13 25 -8 25
5 0 14 -11 20 -25z"/>
<path d="M1185 1271 c-3 -5 -2 -12 3 -15 5 -3 9 1 9 9 0 17 -3 19 -12 6z"/>
<path d="M1154 1228 l-19 -23 23 19 c21 18 27 26 19 26 -2 0 -12 -10 -23 -22z"/>
</g>
</svg>
